<svg width="210" height="80" viewBox="0 0 210 80" fill="none" xmlns="http://www.w3.org/2000/svg">
<path d="M96.272 70.4762H101.741V49.8476H96.272V70.4762ZM96.272 46.6306H101.741V41.7248H96.272V46.6306Z" fill="black"/>
<path d="M105.265 77.2318H110.733V68.144H110.814C111.98 69.9132 113.87 71.0794 116.765 71.0794C122.073 71.0794 125.692 66.8572 125.692 60.182C125.692 53.748 122.194 49.2846 116.725 49.2846C113.91 49.2846 111.98 50.6116 110.653 52.421H110.532V49.8476H105.265V77.2318ZM115.599 66.5354C112.342 66.5354 110.613 64.0826 110.613 60.3428C110.613 56.6434 111.98 53.7078 115.398 53.7078C118.776 53.7078 120.143 56.4422 120.143 60.3428C120.143 64.2434 118.374 66.5354 115.599 66.5354Z" fill="black"/>
<path d="M136.601 71.0794C141.748 71.0794 145.287 68.5862 145.287 64.4444C145.287 59.619 141.467 58.654 138.009 57.9302C135.073 57.327 132.339 57.166 132.339 55.3968C132.339 53.909 133.746 53.1046 135.878 53.1046C138.21 53.1046 139.617 53.909 139.858 56.1206H144.805C144.402 51.9788 141.387 49.2846 135.958 49.2846C131.253 49.2846 127.554 51.4158 127.554 55.8792C127.554 60.383 131.173 61.3884 134.872 62.1122C137.687 62.675 140.301 62.8762 140.301 64.8466C140.301 66.2942 138.934 67.219 136.521 67.219C134.068 67.219 132.379 66.1736 132.017 63.801H126.95C127.272 68.1842 130.61 71.0794 136.601 71.0794Z" fill="black"/>
<path d="M166.05 70.4762V49.8476H160.582V61.7502C160.582 64.4846 159.013 66.4148 156.44 66.4148C154.108 66.4148 153.022 65.0878 153.022 62.675V49.8476H147.593V63.6C147.593 68.1036 150.167 71.0392 154.751 71.0392C157.646 71.0392 159.255 69.9534 160.662 68.0634H160.783V70.4762H166.05Z" fill="black"/>
<path d="M169.588 70.4762H175.057V58.493C175.057 55.7586 176.545 53.9894 178.756 53.9894C180.767 53.9894 181.933 55.1956 181.933 57.528V70.4762H187.402V58.493C187.402 55.7586 188.809 53.9894 191.101 53.9894C193.112 53.9894 194.278 55.1956 194.278 57.528V70.4762H199.747V56.6032C199.747 52.0994 197.294 49.2846 192.951 49.2846C190.337 49.2846 188.166 50.6518 186.758 52.9036H186.678C185.673 50.7322 183.582 49.2846 180.968 49.2846C178.113 49.2846 176.102 50.7322 174.976 52.6222H174.856V49.8476H169.588V70.4762Z" fill="black"/>
<path d="M96.3524 35.144H101.821V6.39258H96.3524V35.144Z" fill="black"/>
<path d="M115.193 35.7472C121.587 35.7472 125.97 31.0022 125.97 24.8498C125.97 18.6974 121.587 13.9524 115.193 13.9524C108.8 13.9524 104.416 18.6974 104.416 24.8498C104.416 31.0022 108.8 35.7472 115.193 35.7472ZM115.193 31.5652C111.815 31.5652 109.966 28.871 109.966 24.8498C109.966 20.8286 111.815 18.0942 115.193 18.0942C118.531 18.0942 120.421 20.8286 120.421 24.8498C120.421 28.871 118.531 31.5652 115.193 31.5652Z" fill="black"/>
<path d="M137.6 42.1812C140.656 42.1812 143.31 41.4574 145.039 39.8488C146.567 38.4414 147.492 36.471 147.492 33.5758V14.5154H142.224V16.6868H142.144C140.897 14.9577 139.007 13.9524 136.434 13.9524C131.206 13.9524 127.507 17.8932 127.507 24.0456C127.507 30.2784 132.011 33.8974 136.595 33.8974C139.209 33.8974 140.777 32.852 141.983 31.4848H142.104V33.7366C142.104 36.5514 140.616 38.0392 137.52 38.0392C134.986 38.0392 133.82 37.034 133.378 35.7472H127.949C128.512 39.7684 131.97 42.1812 137.6 42.1812ZM137.52 29.5144C134.705 29.5144 132.855 27.4636 132.855 23.9652C132.855 20.507 134.705 18.3355 137.479 18.3355C140.777 18.3355 142.385 20.909 142.385 23.925C142.385 26.981 140.978 29.5144 137.52 29.5144Z" fill="black"/>
<path d="M160.785 35.7472C167.179 35.7472 171.562 31.0022 171.562 24.8498C171.562 18.6974 167.179 13.9524 160.785 13.9524C154.391 13.9524 150.008 18.6974 150.008 24.8498C150.008 31.0022 154.391 35.7472 160.785 35.7472ZM160.785 31.5652C157.407 31.5652 155.557 28.871 155.557 24.8498C155.557 20.8286 157.407 18.0942 160.785 18.0942C164.123 18.0942 166.013 20.8286 166.013 24.8498C166.013 28.871 164.123 31.5652 160.785 31.5652Z" fill="black"/>
<path d="M176.356 27.2626H200V22.5578H176.356V27.2626Z" fill="black"/>
<path d="M201.734 46.3434C201.734 45.418 202.484 44.6678 203.41 44.6678H206.76C207.686 44.6678 208.436 45.418 208.436 46.3434C208.436 47.2686 207.686 48.0188 206.76 48.0188H203.41C202.484 48.0188 201.734 47.2686 201.734 46.3434Z" fill="black"/>
<path fill-rule="evenodd" clip-rule="evenodd" d="M41.0432 0C63.1346 0 81.0432 17.9086 81.0432 40C81.0432 62.0914 63.1346 80 41.0432 80C18.9518 80 1.04321 62.0914 1.04321 40C1.04321 17.9086 18.9518 0 41.0432 0ZM39.5974 2.99318C35.0342 3.63538 30.689 7.30216 27.316 13.4348C26.3376 15.2137 25.4548 17.1789 24.6854 19.3009C29.2718 18.1483 34.31 17.4688 39.5974 17.3637V2.99318ZM21.3048 20.2616C22.2614 17.2592 23.4318 14.4968 24.7824 12.0413C26.4544 9.00118 28.4388 6.3759 30.6746 4.35954C18.5168 7.89046 8.93366 17.4736 5.40276 29.6314C7.4191 27.3956 10.0444 25.4112 13.0845 23.7392C15.54 22.3886 18.3024 21.2182 21.3048 20.2616ZM20.344 23.6422C19.1915 28.2286 18.5121 33.2668 18.407 38.5542H4.03638C4.6786 33.9908 8.34538 29.6456 14.478 26.2728C16.2569 25.2944 18.2221 24.4116 20.344 23.6422ZM21.2992 38.5542C21.4186 32.784 22.2492 27.3668 23.6236 22.5804C28.41 21.206 33.8274 20.3752 39.5974 20.2558V26.5016C37.4448 32.0124 33.0544 36.4024 27.5434 38.5542H21.2992ZM18.407 41.4458H4.03638C4.6786 46.0092 8.34538 50.3542 14.478 53.7272C16.2569 54.7056 18.2221 55.5884 20.344 56.3578C19.1915 51.7714 18.5121 46.7332 18.407 41.4458ZM23.6236 57.4196C22.2492 52.6332 21.4186 47.216 21.2992 41.4458H27.5434C33.0544 43.5976 37.445 47.9876 39.5974 53.4984V59.7442C33.8274 59.6248 28.41 58.794 23.6236 57.4196ZM21.3048 59.7384C18.3024 58.7818 15.54 57.6114 13.0845 56.2608C10.0444 54.5888 7.4191 52.6044 5.40276 50.3686C8.93366 62.5264 18.5168 72.1096 30.6746 75.6404C28.4388 73.624 26.4544 70.9988 24.7824 67.9586C23.4318 65.5032 22.2614 62.7408 21.3048 59.7384ZM39.5974 77.0068C35.0342 76.3646 30.689 72.6978 27.316 66.5652C26.3376 64.7864 25.4548 62.821 24.6854 60.6992C29.2718 61.8516 34.31 62.5312 39.5974 62.6362V77.0068ZM51.4118 75.6404C53.6476 73.624 55.632 70.9988 57.3042 67.9586C58.6546 65.5032 59.825 62.7408 60.7816 59.7384C63.784 58.7818 66.5464 57.6114 69.002 56.2608C72.042 54.5888 74.6674 52.6044 76.6836 50.3686C73.1528 62.5264 63.5696 72.1096 51.4118 75.6404ZM57.401 60.6992C56.6316 62.821 55.7488 64.7864 54.7704 66.5652C51.3976 72.6978 47.0524 76.3646 42.489 77.0068V62.6362C47.7764 62.5312 52.8146 61.8516 57.401 60.6992ZM61.7424 56.3578C63.8642 55.5884 65.8296 54.7056 67.6084 53.7272C73.741 50.3542 77.4078 46.0092 78.05 41.4458H63.6794C63.5744 46.7332 62.8948 51.7714 61.7424 56.3578ZM60.7874 41.4458C60.668 47.216 59.8372 52.6332 58.4628 57.4196C53.6764 58.794 48.2592 59.6248 42.489 59.7442V53.503C44.6408 47.9902 49.0322 43.5982 54.5448 41.4458H60.7874ZM63.6794 38.5542H78.05C77.4078 33.9908 73.741 29.6456 67.6084 26.2728C65.8296 25.2944 63.8642 24.4116 61.7424 23.6422C62.8948 28.2286 63.5744 33.2668 63.6794 38.5542ZM58.4628 22.5804C59.8372 27.3668 60.668 32.784 60.7874 38.5542H54.5448C49.0322 36.4018 44.6408 32.0098 42.489 26.497V20.2558C48.2592 20.3752 53.6764 21.206 58.4628 22.5804ZM60.7816 20.2616C63.784 21.2182 66.5464 22.3886 69.002 23.7392C72.042 25.4112 74.6674 27.3956 76.6836 29.6314C73.1528 17.4736 63.5696 7.89046 51.4118 4.35954C53.6476 6.3759 55.632 9.00118 57.3042 12.0413C58.6546 14.4968 59.825 17.2592 60.7816 20.2616ZM42.489 2.99318C47.0524 3.63538 51.3976 7.30216 54.7704 13.4348C55.7488 15.2137 56.6316 17.1789 57.401 19.3009C52.8146 18.1483 47.7764 17.4688 42.489 17.3637V2.99318Z" fill="black"/>
</svg>
